<svg xmlns="http://www.w3.org/2000/svg" width="122" height="204" viewBox="0 0 122 204">
    <g fill="none" fill-rule="evenodd">
        <g fill="#7A090C">
            <g>
                <g>
                    <path d="M.37 69.557C-1.965 50.655 7.044 39.51 19.135 30.33 31.008 21.312 43.976 13.748 54.071 0c3.915 14.594-.685 25.135-8.923 34.524-6.452 7.356-14.63 12.456-22.855 17.36C14.68 56.42 8.298 62.592.37 69.556" transform="translate(-290 -7667) translate(240 7606) translate(50.442 61.374)"/>
                    <g>
                        <path d="M.728.2c10.69 14.73 23.64 22.7 35.508 32.2 11.717 9.382 20.634 20.785 17.882 39.89C43.005 60.297 30.043 53.192 18.39 44.083 5.632 34.11-2.517 21.383.728.2" transform="translate(-290 -7667) translate(240 7606) translate(50.442 61.374) translate(64.566)"/>
                    </g>
                    <path d="M.458 77.74c10.907 11.338 23.033 17.938 34.238 25.892 13.943 9.897 23.676 22.384 20.015 43.666-11.15-14.387-25.383-22.295-38.014-32.331C5.703 106.23-1.997 95.357.458 77.74" transform="translate(-290 -7667) translate(240 7606) translate(50.442 61.374)"/>
                    <g>
                        <path d="M54.003.002c2.51 20.796-7.306 32.485-19.653 42.137C23.212 50.85 11.634 58.843 2.222 71.55-1.315 62.72.373 55.045 3.523 47.743c4.234-9.807 11.406-16.82 19.61-22.468C33.51 18.13 43.926 11.082 54.003.002" transform="translate(-290 -7667) translate(240 7606) translate(50.442 61.374) translate(63.558 71.603)"/>
                    </g>
                    <path d="M115.603 134c2.504 19.37-6.667 30.582-18.706 39.8-11.768 9.006-24.485 16.714-34.366 29.757-3.538-8.531-1.916-15.9 1.254-22.994 4.256-9.522 11.528-16.32 19.876-21.79 10.802-7.072 21.723-13.93 31.942-24.773M54.69 203.557c-10.656-13.742-23.392-21.444-35.26-30.329C7.266 164.125-2.219 153.103.454 134c11.106 11.518 23.844 18.235 35.42 26.653 13.541 9.85 22.391 22.318 18.817 42.904" transform="translate(-290 -7667) translate(240 7606) translate(50.442 61.374)"/>
                </g>
            </g>
        </g>
    </g>
</svg>