<svg xmlns="http://www.w3.org/2000/svg" width="29" height="25" viewBox="0 0 29 25">
    <g fill="none" fill-rule="evenodd">
        <g fill="#000" fill-rule="nonzero" stroke="#F9F6F0" stroke-width=".25">
            <g>
                <g>
                    <g>
                        <g>
                            <g>
                                <path d="M23.264 23.831H2.837C1.272 23.831 0 22.558 0 20.994V5.107c0-.314.254-.568.567-.568.314 0 .568.254.568.568v15.887c0 .939.764 1.702 1.702 1.702h20.427c.312 0 .567-.254.567-.567v-3.404c0-.314.254-.568.568-.568.313 0 .567.254.567.568v3.404c0 .939-.764 1.702-1.702 1.702z" transform="translate(-775 -7982) translate(240 7934) translate(0 40) translate(364.5) translate(165 .292) translate(6 8)"/>
                                <path d="M24.399 12.483c-.314 0-.568-.254-.568-.567V8.51c0-.313-.255-.567-.567-.567H2.837c-.766 0-1.479-.299-2.007-.841C.298 6.585 0 5.873 0 5.107 0 3.543 1.272 2.27 2.837 2.27h9.703c.313 0 .567.254.567.567 0 .313-.254.567-.567.567H2.837c-.938 0-1.702.764-1.702 1.703 0 .457.177.88.497 1.194.324.33.749.508 1.205.508h20.427c.938 0 1.702.764 1.702 1.702v3.405c0 .313-.254.567-.567.567z" transform="translate(-775 -7982) translate(240 7934) translate(0 40) translate(364.5) translate(165 .292) translate(6 8)"/>
                                <path d="M20.994 7.944c-.313 0-.567-.254-.567-.568V3.972c0-.313-.256-.568-.568-.568h-2.076c-.314 0-.568-.254-.568-.567 0-.313.254-.567.568-.567h2.076c.939 0 1.703.763 1.703 1.702v3.404c0 .314-.255.568-.568.568z" transform="translate(-775 -7982) translate(240 7934) translate(0 40) translate(364.5) translate(165 .292) translate(6 8)"/>
                                <path d="M20.427 7.944c-.195 0-.385-.101-.49-.282L16.254 1.35 5.398 7.863c-.265.161-.616.075-.778-.195-.161-.268-.074-.617.195-.778L16.163.08c.13-.078.286-.098.433-.063.147.037.272.133.35.263l3.971 6.81c.159.27.067.618-.204.775-.09.054-.189.079-.286.079h0zM26.668 19.292h-5.674c-2.19 0-3.972-1.782-3.972-3.972s1.782-3.972 3.972-3.972h5.674c.314 0 .568.254.568.568v6.809c0 .313-.254.567-.568.567zm-5.674-6.809c-1.565 0-2.837 1.273-2.837 2.837 0 1.564 1.272 2.837 2.837 2.837h5.107v-5.674h-5.107z" transform="translate(-775 -7982) translate(240 7934) translate(0 40) translate(364.5) translate(165 .292) translate(6 8)"/>
                                <path d="M20.994 17.022c-.938 0-1.702-.763-1.702-1.702 0-.938.764-1.702 1.702-1.702.939 0 1.702.764 1.702 1.702 0 .939-.763 1.702-1.702 1.702zm0-2.27c-.312 0-.567.255-.567.568 0 .313.255.568.567.568.312 0 .568-.255.568-.568 0-.313-.256-.567-.568-.567z" transform="translate(-775 -7982) translate(240 7934) translate(0 40) translate(364.5) translate(165 .292) translate(6 8)"/>
                            </g>
                        </g>
                    </g>
                </g>
            </g>
        </g>
    </g>
</svg>
