<svg xmlns="http://www.w3.org/2000/svg" width="29" height="27" viewBox="0 0 29 27">
    <g fill="none" fill-rule="evenodd">
        <g fill="#000" fill-rule="nonzero" stroke="#000" stroke-width=".1">
            <g>
                <g>
                    <g>
                        <g>
                            <g>
                                <path d="M6.529 4.572L9.71 7.543c.544.509 1.417.08 1.417-.69v-.587c.93.066 1.797.321 2.526.744.984.572 1.753 1.575 2.108 2.752.115.382.447.638.824.638.09 0 .18-.008.27-.012.472-.023.85-.466.824-.971V9.41c-.048-.903-.254-1.807-.597-2.614-.646-1.524-1.752-2.768-3.38-3.802-.818-.52-1.71-.817-2.575-1.104V.91c0-.769-.876-1.196-1.417-.691L6.53 3.19c-.386.36-.385 1.023 0 1.382h0zm.462-.813L10.173.787c.096-.09.25-.015.25.122v1.268c0 .176.113.328.272.368.068.016.143.038.213.062.867.287 1.685.56 2.435 1.036 1.5.953 2.514 2.086 3.099 3.466.306.722.49 1.533.534 2.342v.006c.005.093-.067.173-.153.177l-.23.012h-.008c-.07 0-.134-.048-.154-.116-.41-1.36-1.3-2.52-2.443-3.183-.912-.53-2.01-.824-3.176-.851-.205-.005-.389.145-.389.376v.98c0 .136-.154.213-.25.123L6.99 4.003c-.068-.064-.068-.18 0-.244zM1.132 17.854h.921v5.644c0 .806.696 1.462 1.552 1.462h18.79c.856 0 1.552-.656 1.552-1.462v-5.644h.921c.788 0 1.345-.773 1.053-1.463l-2.001-4.725c-.058-.137-.198-.226-.354-.226h-2.012c-.21 0-.381.16-.381.359 0 .198.17.359.38.359h1.755l1.905 4.499c.097.227-.086.48-.345.48H12.936c-.151 0-.29-.088-.345-.22l-2.016-4.76h9.455c.21 0 .381-.16.381-.358 0-.199-.17-.359-.38-.359H2.433c-.156 0-.296.09-.354.226L.08 16.39c-.292.69.265 1.463 1.053 1.463zm8.88 3.795c.211 0 .382-.16.382-.359v-7.624l1.489 3.517c.173.408.586.671 1.053.671h10.249v5.644c0 .41-.354.744-.79.744H10.394v-1.516c0-.199-.17-.36-.381-.36-.21 0-.381.161-.381.36v1.516H3.605c-.436 0-.79-.333-.79-.744v-5.644H7.09c.46 0 .882-.269 1.053-.672l1.489-3.516v7.624c0 .199.17.36.38.36h0zM.787 16.657l1.906-4.5h6.759l-2.016 4.76c-.056.132-.193.22-.345.22H1.132c-.259 0-.442-.253-.346-.48z" transform="translate(-932 -7981) translate(240 7934) translate(0 40) translate(364.5) translate(321) translate(8 8)"/>
                            </g>
                        </g>
                    </g>
                </g>
            </g>
        </g>
    </g>
</svg>
