<svg xmlns="http://www.w3.org/2000/svg" width="42" height="25" viewBox="0 0 42 25">
    <g fill="none" fill-rule="evenodd">
        <g>
            <g>
                <g>
                    <g>
                        <g>
                            <g fill="#000" fill-rule="nonzero" stroke="#F9F6F0" stroke-width=".5">
                                <path d="M10.723 19.796h-3.3c-.455 0-.824-.37-.824-.825 0-.455.37-.825.824-.825h3.3c.455 0 .825.37.825.825 0 .455-.37.825-.825.825zM37.53 19.796h-2.063c-.455 0-.824-.37-.824-.825 0-.455.37-.825.824-.825h1.378l1.112-5.925c-.015-3.032-2.605-5.622-5.789-5.622h-5.416l-2.624 11.547h4.74c.456 0 .826.37.826.825 0 .455-.37.825-.825.825h-5.774c-.25 0-.488-.114-.645-.31-.157-.195-.216-.452-.16-.697l3-13.197c.085-.377.418-.643.804-.643h6.074c4.093 0 7.424 3.33 7.424 7.423l-1.253 6.75c-.072.392-.412.674-.81.674z" transform="translate(-603 -7981) translate(240 7934) translate(0 40) translate(364.5) translate(0 8)"/>
                                <path d="M14.022 23.095c-2.273 0-4.124-1.85-4.124-4.124 0-2.275 1.85-4.124 4.124-4.124 2.273 0 4.124 1.85 4.124 4.124 0 2.275-1.85 4.124-4.124 4.124zm0-6.599c-1.364 0-2.474 1.11-2.474 2.475 0 1.364 1.11 2.474 2.474 2.474s2.474-1.11 2.474-2.474-1.11-2.475-2.474-2.475zM10.723 4.949H4.124c-.455 0-.825-.37-.825-.825 0-.455.37-.825.825-.825h6.599c.455 0 .825.37.825.825 0 .455-.37.825-.825.825zM10.723 9.898H2.474c-.455 0-.824-.37-.824-.825 0-.455.37-.825.824-.825h8.249c.455 0 .825.37.825.825 0 .455-.37.825-.825.825zM10.723 14.847H.825c-.455 0-.825-.37-.825-.825 0-.455.37-.825.825-.825h9.898c.455 0 .825.37.825.825 0 .455-.37.825-.825.825z" transform="translate(-603 -7981) translate(240 7934) translate(0 40) translate(364.5) translate(0 8)"/>
                                <path d="M23.095 19.796h-5.774c-.455 0-.825-.37-.825-.825 0-.455.37-.825.825-.825h5.116L26.185 1.65H7.423c-.455 0-.824-.37-.824-.825 0-.455.37-.825.824-.825H27.22c.25 0 .488.114.645.31.157.195.216.452.16.696L23.9 19.152c-.086.378-.42.644-.805.644zM32.168 23.095c-2.273 0-4.124-1.85-4.124-4.124 0-2.275 1.85-4.124 4.124-4.124 2.273 0 4.124 1.85 4.124 4.124 0 2.275-1.85 4.124-4.124 4.124zm0-6.599c-1.364 0-2.474 1.11-2.474 2.475 0 1.364 1.11 2.474 2.474 2.474s2.475-1.11 2.475-2.474-1.11-2.475-2.475-2.475z" transform="translate(-603 -7981) translate(240 7934) translate(0 40) translate(364.5) translate(0 8)"/>
                            </g>
                        </g>
                    </g>
                </g>
            </g>
        </g>
    </g>
</svg>
